<?xml version="1.0" standalone="no"?>
<!DOCTYPE svg PUBLIC "-//W3C//DTD SVG 20010904//EN"
 "http://www.w3.org/TR/2001/REC-SVG-20010904/DTD/svg10.dtd">
<svg version="1.0" xmlns="http://www.w3.org/2000/svg"
 width="512.000000pt" height="512.000000pt" viewBox="0 0 512.000000 512.000000"
 preserveAspectRatio="xMidYMid meet">

<g transform="translate(0.000000,512.000000) scale(0.100000,-0.100000)"
fill="#000000" stroke="none">
<path d="M2218 5113 l-38 -4 0 -1085 0 -1084 -1084 0 -1083 0 -7 -37 c-8 -49
-8 -637 0 -685 l7 -38 1083 0 1084 0 0 -1084 0 -1083 46 -7 c61 -8 607 -8 668
0 l46 7 0 1083 0 1084 1084 0 1083 0 7 46 c8 61 8 607 0 668 l-7 46 -1083 0
-1084 0 0 1084 0 1083 -52 7 c-56 6 -606 5 -670 -1z"/>
<path d="M1635 5089 c-319 -21 -665 -52 -775 -69 -119 -19 -325 -100 -304
-120 11 -9 1313 -1090 1337 -1109 16 -13 17 22 17 648 l0 661 -77 -1 c-43 -1
-132 -5 -198 -10z"/>
<path d="M3210 4429 c0 -533 3 -669 13 -663 9 6 1324 1092 1361 1125 17 15
-167 96 -269 119 -117 26 -863 90 -1057 90 l-48 0 0 -671z"/>
<path d="M252 4637 c-37 -53 -87 -150 -107 -208 -13 -35 -13 -45 -3 -55 7 -6
325 -271 706 -588 l692 -576 186 0 185 0 -3 59 -3 59 -760 633 c-418 348 -783
652 -812 676 l-51 44 -30 -44z"/>
<path d="M4025 3994 l-810 -674 -3 -55 -3 -55 192 0 191 0 687 571 c377 315
693 578 701 585 12 12 12 21 -5 71 -21 60 -115 225 -131 229 -5 2 -373 -301
-819 -672z"/>
<path d="M66 3938 c-9 -76 -34 -419 -42 -585 l-7 -143 498 0 497 0 -454 378
c-249 207 -461 383 -469 390 -15 11 -17 7 -23 -40z"/>
<path d="M4610 3609 c-239 -198 -444 -369 -455 -380 -19 -19 -12 -19 464 -19
l484 0 -7 138 c-10 214 -37 575 -44 600 -6 20 -46 -10 -442 -339z"/>
<path d="M20 1863 c0 -114 44 -701 54 -710 2 -3 210 167 461 376 l457 381
-486 0 -486 0 0 -47z"/>
<path d="M845 1334 c-379 -316 -696 -581 -704 -589 -13 -12 -11 -23 12 -82 15
-37 49 -103 77 -146 l49 -77 813 676 813 676 3 59 3 59 -188 -1 -188 0 -690
-575z"/>
<path d="M3210 1857 l0 -52 810 -675 c446 -371 815 -676 819 -678 14 -5 98
134 127 210 19 47 25 74 18 83 -5 8 -320 273 -700 589 l-692 576 -191 0 -191
0 0 -53z"/>
<path d="M4170 1896 c87 -81 875 -725 880 -719 7 8 34 352 47 606 l6 127 -474
0 c-402 0 -471 -2 -459 -14z"/>
<path d="M3210 699 l0 -682 138 7 c313 15 787 55 917 77 114 19 332 106 323
129 -2 4 -291 248 -643 540 -352 293 -661 551 -687 572 l-48 40 0 -683z"/>
<path d="M1335 889 c-314 -259 -623 -516 -688 -570 l-118 -98 68 -34 c125 -63
217 -86 423 -106 300 -31 875 -69 885 -59 3 3 4 305 3 672 l-3 667 -570 -472z"/>
</g>
</svg>
